<svg width="29" height="29" viewBox="0 0 29 29" fill="none" xmlns="http://www.w3.org/2000/svg">
<g clip-path="url(#clip0_11_550)">
<path d="M3.10707 4.14285C2.5577 4.14285 2.03082 4.36109 1.64235 4.74956C1.25388 5.13802 1.03564 5.6649 1.03564 6.21428V25.8928C1.03564 26.4422 1.25388 26.9691 1.64235 27.3576C2.03082 27.746 2.5577 27.9643 3.10707 27.9643H25.8928C26.4422 27.9643 26.969 27.746 27.3575 27.3576C27.746 26.9691 27.9642 26.4422 27.9642 25.8928V6.21428C27.9642 5.6649 27.746 5.13802 27.3575 4.74956C26.969 4.36109 26.4422 4.14285 25.8928 4.14285H21.7499M7.24993 1.03571V7.24999M21.7499 1.03571V7.24999M7.24993 4.14285H17.6071" stroke="black" stroke-linecap="round" stroke-linejoin="round"/>
<path d="M12.8181 9.44983C12.5434 9.44983 12.28 9.55895 12.0857 9.75318C11.8915 9.94742 11.7824 10.2109 11.7824 10.4855V13.398H8.86579C8.5911 13.398 8.32767 13.5071 8.13343 13.7013C7.9392 13.8956 7.83008 14.159 7.83008 14.4337V17.7998C7.83008 18.0744 7.9392 18.3379 8.13343 18.5321C8.32767 18.7264 8.5911 18.8355 8.86579 18.8355H11.7803V21.7479C11.7803 22.0226 11.8894 22.286 12.0836 22.4803C12.2779 22.6745 12.5413 22.7836 12.816 22.7836H16.1821C16.3181 22.7836 16.4528 22.7568 16.5784 22.7048C16.7041 22.6527 16.8183 22.5764 16.9144 22.4803C17.0106 22.3841 17.0869 22.2699 17.139 22.1443C17.191 22.0186 17.2178 21.8839 17.2178 21.7479V18.8355H20.1302C20.4049 18.8355 20.6683 18.7264 20.8626 18.5321C21.0568 18.3379 21.1659 18.0744 21.1659 17.7998V14.4337C21.1659 14.159 21.0568 13.8956 20.8626 13.7013C20.6683 13.5071 20.4049 13.398 20.1302 13.398H17.2199V10.4855C17.2199 10.2109 17.1107 9.94742 16.9165 9.75318C16.7223 9.55895 16.4588 9.44983 16.1842 9.44983H12.8181Z" stroke="black" stroke-linecap="round" stroke-linejoin="round"/>
</g>
<defs>
<clipPath id="clip0_11_550">
<rect width="29" height="29" fill="white"/>
</clipPath>
</defs>
</svg>
