<svg width="39" height="39" viewBox="0 0 41 47" fill="none" xmlns="http://www.w3.org/2000/svg">
<path d="M13.48 17.875C15.81 17.479 17.538 15.357 17.801 12.822C18.068 10.244 18.67 -0.116016 14.781 0.542984C4.69297 2.25398 5.40097 19.245 13.48 17.875ZM26.753 17.875C34.83 19.245 35.538 2.25398 25.45 0.541984C21.562 -0.117016 22.163 10.243 22.429 12.821C22.693 15.357 24.423 17.479 26.753 17.875ZM9.33597 25.88C9.33597 24.532 8.85497 23.31 8.07997 22.421C6.80497 20.755 2.75197 17.386 1.75697 18.249C-0.320028 20.055 -0.253028 24.5 0.997972 27.73C1.64097 29.526 3.19397 30.789 5.00897 30.789C7.39797 30.789 9.33597 28.591 9.33597 25.88ZM38.473 18.249C37.48 17.386 33.427 20.755 32.152 22.421C31.377 23.31 30.895 24.532 30.895 25.88C30.895 28.591 32.835 30.789 35.222 30.789C37.038 30.789 38.592 29.526 39.235 27.73C40.483 24.5 40.552 20.055 38.473 18.249ZM30.337 33.526C26.661 31.693 26.775 28.163 25.939 24.942C25.274 22.373 22.919 20.473 20.116 20.473C18.8158 20.4695 17.5496 20.8879 16.5076 21.6655C15.4655 22.443 14.7038 23.5376 14.337 24.785C13.442 27.867 13.981 31.455 9.97397 33.502C6.71897 34.563 5.40097 36.111 5.40097 39.772C5.40097 42.746 7.95397 45.93 11.249 46.326C14.925 46.88 17.793 46.156 20.116 44.832C22.439 46.156 25.305 46.879 28.987 46.326C32.28 45.93 34.834 42.758 34.834 39.772C34.833 36.031 33.599 34.637 30.337 33.526ZM26 38H22.189L22.194 42H18.038L18.044 38H14V34H18.045L18.039 30H22.195L22.19 34H26V38Z" fill="white"/>
</svg>
